<?xml version="1.0" standalone="no"?>
<!DOCTYPE svg PUBLIC "-//W3C//DTD SVG 20010904//EN"
 "http://www.w3.org/TR/2001/REC-SVG-20010904/DTD/svg10.dtd">
<svg version="1.0" xmlns="http://www.w3.org/2000/svg"
 width="1262.000000pt" height="1253.000000pt" viewBox="0 0 1262.000000 1253.000000"
 preserveAspectRatio="xMidYMid meet">

<g transform="translate(0.000000,1253.000000) scale(0.100000,-0.100000)"
fill="#ffffff" stroke="none">
<path d="M6025 12523 c-151 -6 -449 -35 -615 -59 -2521 -360 -4579 -2197
-5210 -4648 -138 -536 -193 -979 -194 -1546 0 -341 8 -494 45 -783 262 -2087
1557 -3895 3458 -4831 716 -352 1450 -557 2271 -633 133 -12 283 -17 535 -17
377 0 570 13 895 60 1229 176 2364 701 3305 1529 152 134 445 432 589 600 776
905 1282 2015 1450 3186 46 314 59 518 60 879 0 341 -8 493 -45 783 -225 1793
-1217 3397 -2726 4409 -302 202 -724 432 -1041 566 -880 373 -1830 546 -2777
505z m500 -953 c503 -24 957 -106 1410 -255 401 -133 750 -293 1105 -508 359
-218 658 -454 982 -776 609 -606 1025 -1281 1295 -2099 88 -270 136 -463 193
-792 116 -662 80 -1490 -96 -2167 -183 -704 -499 -1349 -943 -1923 -496 -642
-1160 -1178 -1892 -1529 -786 -377 -1662 -555 -2522 -513 -538 26 -1009 116
-1492 282 -772 267 -1436 685 -2018 1270 -262 263 -432 468 -639 770 -147 216
-302 490 -414 732 -440 956 -584 1980 -429 3036 60 408 186 850 361 1267 61
145 236 489 321 630 472 783 1122 1424 1898 1873 138 80 448 235 580 290 590
246 1191 384 1804 411 244 11 266 11 496 1z"/>
<path d="M6015 11363 c-105 -4 -364 -32 -505 -54 -180 -27 -265 -44 -445 -90
-372 -93 -660 -198 -1000 -364 -717 -349 -1345 -867 -1832 -1510 -73 -97 -102
-138 -196 -281 -396 -604 -655 -1277 -767 -1994 -71 -458 -78 -956 -19 -1420
108 -859 419 -1637 945 -2370 227 -316 587 -691 919 -956 744 -595 1621 -964
2565 -1079 353 -43 843 -45 1185 -5 1052 124 2026 559 2805 1254 58 52 364
358 416 416 1277 1432 1637 3479 924 5264 -535 1343 -1628 2399 -2995 2895
-631 228 -1284 325 -2000 294z m488 -303 c689 -32 1309 -192 1907 -490 221
-110 336 -176 530 -306 533 -356 993 -818 1342 -1349 340 -517 574 -1090 698
-1705 12 -58 24 -113 26 -123 5 -16 -27 -17 -602 -15 l-607 3 -43 155 c-360
1314 -1434 2317 -2762 2579 -246 49 -414 65 -697 65 -288 0 -408 -11 -675 -60
-1015 -190 -1910 -823 -2433 -1724 -250 -431 -394 -865 -463 -1400 -25 -188
-25 -610 0 -805 54 -428 162 -799 336 -1158 366 -754 997 -1369 1752 -1708
329 -148 656 -241 1024 -290 242 -33 674 -33 911 -1 703 95 1330 372 1869 826
70 59 342 330 403 401 23 28 87 109 141 180 289 384 494 814 615 1290 l23 90
598 3 c329 1 601 -1 605 -5 9 -9 -46 -282 -91 -452 -184 -692 -520 -1330 -999
-1892 -71 -83 -417 -429 -500 -500 -511 -435 -1064 -742 -1702 -945 -115 -36
-419 -110 -549 -134 -1230 -219 -2470 32 -3495 708 -283 186 -492 359 -750
617 -198 197 -296 308 -444 505 -460 611 -765 1321 -890 2070 -38 234 -49 335
-61 593 -27 586 52 1156 241 1719 406 1215 1271 2207 2414 2768 245 121 372
173 619 255 415 138 820 214 1256 234 239 11 227 11 453 1z m202 -1404 c1007
-128 1693 -620 1941 -1395 36 -114 83 -376 84 -468 0 -10 -82 -13 -379 -13
l-380 0 -10 58 c-58 309 -165 528 -350 713 -235 236 -543 365 -996 415 -199
23 -637 14 -820 -15 -374 -61 -645 -182 -841 -376 -110 -110 -172 -206 -224
-352 -19 -53 -26 -62 -49 -65 l-26 -3 0 -778 c0 -555 -3 -777 -11 -777 -13 0
-134 84 -224 155 -174 139 -338 361 -409 557 -66 179 -93 343 -94 558 0 177
12 279 52 435 67 256 202 493 400 698 268 279 613 466 1096 595 66 18 263 50
370 62 55 5 116 12 135 14 82 10 621 -4 735 -18z m-370 -1520 c470 -66 796
-211 1046 -467 196 -200 327 -463 394 -792 25 -123 52 -343 43 -352 -2 -3 -58
17 -124 43 -65 27 -162 63 -215 81 l-96 33 -26 132 c-57 288 -144 466 -308
628 -203 202 -488 314 -884 348 -78 7 -304 10 -565 8 l-435 -3 -3 -1508 -2
-1509 527 5 c433 3 546 7 628 20 310 52 531 151 706 315 129 122 221 269 283
452 14 41 30 76 36 78 13 5 232 -103 303 -148 26 -17 50 -37 53 -44 3 -7 -16
-61 -42 -120 -223 -510 -654 -802 -1319 -893 -115 -16 -214 -18 -855 -18
l-725 0 -3 1868 -2 1869 732 -5 c614 -4 753 -7 853 -21z m-999 -1032 c190 -72
514 -160 879 -238 116 -25 239 -53 275 -61 36 -8 119 -26 185 -40 951 -204
1526 -474 1868 -877 107 -127 229 -347 276 -501 53 -173 66 -278 66 -532 0
-211 -3 -254 -23 -353 -151 -744 -755 -1306 -1635 -1521 -488 -120 -1241 -109
-1772 25 -846 214 -1400 681 -1639 1382 -63 184 -100 368 -121 605 l-7 67 376
0 c207 0 376 -4 376 -9 0 -4 7 -48 15 -97 102 -593 502 -1037 1116 -1238 239
-78 462 -114 769 -123 737 -21 1303 182 1593 572 168 225 231 502 182 800 -33
203 -99 331 -245 475 -203 201 -491 331 -1070 484 -162 43 -579 140 -670 156
-153 27 -627 153 -800 213 l-65 22 -3 408 c-1 224 0 407 2 407 2 0 35 -12 72
-26z m-2225 -389 c21 -60 83 -252 138 -425 56 -173 104 -322 108 -330 5 -14
36 75 224 648 l73 222 108 0 108 0 0 -540 0 -540 -70 0 -70 0 -2 440 -3 440
-98 -293 c-54 -160 -121 -359 -149 -440 l-51 -148 -66 3 -65 3 -148 440 -148
440 -2 -440 -3 -440 -67 -3 -68 -3 0 541 0 541 108 -3 107 -3 36 -110z m6354
54 c124 -23 214 -92 246 -186 18 -55 7 -209 -18 -258 -67 -128 -200 -175 -490
-175 l-123 0 -2 -202 -3 -203 -70 0 -70 0 -3 518 -2 517 238 0 c131 0 265 -5
297 -11z m1025 -236 c25 -76 49 -141 55 -146 5 -4 73 -7 150 -6 77 0 144 0
150 0 7 -1 -147 -118 -228 -174 -16 -11 -15 -20 28 -147 25 -74 44 -141 43
-148 -2 -8 -52 23 -125 77 l-122 90 -123 -90 c-68 -49 -124 -85 -126 -80 -2 5
17 71 42 146 41 126 43 138 28 151 -9 7 -66 50 -127 94 -60 44 -105 80 -100
80 6 1 73 1 151 0 104 -1 144 2 151 12 6 7 30 73 54 146 24 72 46 132 49 132
3 0 26 -62 50 -137z"/>
<path d="M9080 6465 l0 -188 173 5 c187 5 236 17 285 71 47 51 51 160 9 224
-40 59 -71 67 -279 71 l-188 4 0 -187z"/>
</g>
</svg>
