<?xml version="1.0" encoding="utf-8"?>
<!-- Generator: Adobe Illustrator 26.3.1, SVG Export Plug-In . SVG Version: 6.00 Build 0)  -->
<svg version="1.1" id="Gymnastics" xmlns="http://www.w3.org/2000/svg" xmlns:xlink="http://www.w3.org/1999/xlink" x="0px" y="0px"
	 viewBox="25 25 450 450" style="enable-background:new 25 25 450 450;" xml:space="preserve" fill="#ffffff">
<path id="Gymnastics_2" d="M101,71.7c1.3-1.3,20.2-3,33.6-3s14,4.4,43.9,4.4s64.5-6.6,85.3-6.6s24.8,14.6,23.8,36
	s-10.4,79.9-10.4,79.9s18.6-1.8,30,5c11.4,6.8,53.5,36.8,49.5,72.3s-7,31.2-5.2,36.8c1.8,5.6,9.4,24.2,16,38.8
	c6.6,14.6,38.6,90.7,38.8,93.5c0.2,2.8-0.4,3.2-3,3.2s-33.4,1-33.4-1.4c0-2.4,18-3.6,18-6.8c0-3.2-0.2-8.2-12.4-23.4
	c-12.2-15.2-23-40.6-23-40.6s-4.2,3-5.6,6c-1.4,3-12.6,34.4-35.4,31.8c-22.8-2.6-26.2-13.4-26.2-13.4s-3.2,9.2-12.4-0.8
	c-9.2-10-14.4-11.6-13-19.4s16.8-8.2,16.8-8.2s-4.6-17.1,31.6-41.7c0,0,5.4-2.2,0.2-9c-5.2-6.8-18.4-22.6-22.8-45.5s-9.4-37-14-37.6
	s-7.8,20.8-25.6,23.6c-17.8,2.8-20,1.8-20,1.8S203.4,277,172.6,298c0,0,2,4.2,2,21.4c0,17.2-3,31.4-11.2,48.7
	c-8.2,17.4-14,27-13.2,38.8c0.8,11.8,1.6,14.4-1.4,14.8s-51.1,1-52.7,0c-1.6-1-2.2-3.4-2-4.8c0.2-1.4,8.2-1,14-2.2
	c5.8-1.2,21.2-9.8,26.6-23c5.4-13.2,6-102.7,8.8-111.9s63.9-74.3,63.9-74.3s-2-14.8,5-33.6s37.8-74.1,37.8-74.1s-9.8,6.8-23,6.8
	c-13.2,0-47.9-10.2-53.7-10.2c-5.8,0-8.6,0.6-12.4,6.2c-3.8,5.6-7,7.8-11.6,7.8c-4.6,0-10.4-17.4-19-22.2
	C121.9,81.5,94,78.7,101,71.7z"/>
</svg>
