<?xml version="1.0" encoding="iso-8859-1"?>
<!-- Uploaded to: SVG Repo, www.svgrepo.com, Generator: SVG Repo Mixer Tools -->
<svg fill="#ffffff" height="800px" width="800px" version="1.1" id="Layer_1" xmlns="http://www.w3.org/2000/svg" xmlns:xlink="http://www.w3.org/1999/xlink" 
	 viewBox="0 0 512 512" xml:space="preserve">
<g>
	<g>
		<path d="M453.11,302.619V283.62c0-31.089-12.174-57.183-35.205-75.461c-20.441-16.221-48.921-25.155-80.197-25.155
			c-52.169,0-92.139-21.368-118.799-63.509c-20.678-32.686-25.512-66.262-25.553-66.561l-1.907-14.252H23.338v16.432
			c0,62.184-6.425,96.15-12.637,128.999C5.198,213.209,0,240.69,0,283.631l0.018,27.316l35.097,73.316
			c-3.376,7.767-5.26,16.328-5.26,25.322c0,35.143,28.59,63.733,63.733,63.733c35.143,0,63.733-28.59,63.733-63.733
			c0-7.136-1.196-13.992-3.37-20.404l12.222-10.467h120.767l12.222,10.467c-2.173,6.411-3.37,13.268-3.37,20.404
			c0,35.143,28.591,63.733,63.733,63.733c29.293,0,54.017-19.871,61.442-46.838l6.63,8.194L512,350.269L453.11,302.619z
			 M56.046,71.547h29.958v10.356c0,22.373-13.982,41.53-33.663,49.228C54.215,114.22,55.599,94.816,56.046,71.547z M93.586,440.453
			c-17.021,0-30.87-13.847-30.87-30.87c0-17.022,13.849-30.87,30.87-30.87c17.022,0,30.87,13.849,30.87,30.87
			C124.455,426.605,110.608,440.453,93.586,440.453z M359.524,440.453c-17.022,0-30.87-13.847-30.87-30.87
			c0-17.022,13.849-30.87,30.87-30.87s30.87,13.849,30.87,30.87C390.394,426.605,376.545,440.453,359.524,440.453z M371.961,347.079
			c-4.025-0.8-8.181-1.227-12.437-1.227c-16.06,0-30.74,5.984-41.961,15.823l-18.476-15.823H154.023l-18.476,15.823
			c-11.22-9.839-25.901-15.823-41.961-15.823c-13.048,0-25.189,3.948-35.302,10.702l-15.92-33.257h353.377L371.961,347.079z
			 M32.868,290.434l-0.004-6.814c0-39.85,4.694-64.665,10.128-93.4c1.437-7.599,2.918-15.435,4.347-23.802
			c40.534-6.781,71.529-42.088,71.529-84.517V71.546h44.76c1.102,4.545,2.593,10.001,4.558,16.077l-19.439,9.356l14.254,29.611
			l17.549-8.447c2.886,5.846,6.163,11.831,9.9,17.825c0.076,0.122,0.154,0.244,0.231,0.366l-17.124,17.124l23.238,23.238
			l13.938-13.938c4.031,4.398,8.413,8.724,13.179,12.891l-11.516,19.564l28.322,16.672l10.136-17.219
			c4.869,2.722,10.008,5.253,15.429,7.55l-4.698,23.383l32.219,6.474l4.04-20.106c12.176,2.501,25.431,3.903,39.865,3.903
			c23.888,0,45.115,6.404,59.768,18.033c15.109,11.991,22.771,28.718,22.771,49.718v6.815H32.868z M407.69,357.824l27.462-27.463
			l27.792,22.487l-32.767,32.768L407.69,357.824z"/>
	</g>
</g>
</svg>