<?xml version="1.0" encoding="iso-8859-1"?>
<!-- Uploaded to: SVG Repo, www.svgrepo.com, Generator: SVG Repo Mixer Tools -->
<svg fill="#ffffff" height="600px" width="600px" version="1.1" id="Layer_1" xmlns="http://www.w3.org/2000/svg" xmlns:xlink="http://www.w3.org/1999/xlink" 
	 viewBox="0 0 510 510" xml:space="preserve">
<path d="M413.959,71.027C368.156,25.227,307.26,0.003,242.486,0.003c-64.77,0-125.663,25.224-171.463,71.024
	C25.224,116.828,0,177.724,0,242.496c0,64.77,25.224,125.664,71.023,171.464s106.693,71.023,171.463,71.023
	c64.772,0,125.67-25.223,171.473-71.023c45.803-45.8,71.027-106.694,71.027-171.464C484.986,177.724,459.762,116.828,413.959,71.027
	z M238.469,454.932c-28.263-0.527-55.192-6.597-79.746-17.171c26.33-19.414,48.645-44.025,65.319-72.308
	c20.372-34.555,31.798-73.787,33.281-113.987c24.936-13.106,51.937-20.916,79.347-23.428
	C355.812,316.642,316.616,408.043,238.469,454.932z M358.203,196.998c-40.115-0.362-79.808,9.358-115.366,28.177
	c-23.816-15.042-44.079-34.522-59.959-57.002c67.147-60.872,165.877-72.638,245.551-28.437
	c13.053,23.524,21.769,49.768,25.067,77.651C423.517,204.29,391.034,197.296,358.203,196.998z M393.061,92.705
	c-77.889-22.627-163.239-4.819-225.961,49.369c-13.761-26.924-21.851-56.822-23.171-87.782
	c29.476-15.499,63.007-24.288,98.558-24.288C301.27,30.003,354.552,53.999,393.061,92.705z M115.256,72.409
	c3.656,32.478,13.837,64.073,29.979,92.628c19.742,34.924,48.009,64.438,82.085,85.822c-1.119,28.146-7.858,55.435-19.386,80.427
	c-86.288-27.714-145.843-107.33-147.403-198.428C74.741,109.363,93.368,88.825,115.256,72.409z M30,242.496
	c0-19.28,2.596-37.961,7.43-55.731C56.722,265.638,114.857,330.749,193.222,358c-16.431,25.371-38.27,47.32-64.411,63.941
	C69.464,384.213,30,317.879,30,242.496z M296.765,447.947c58.651-56.138,85.97-139.028,70.397-220.51
	c30.207,1.546,60.15,9.485,87.628,23.831C450.931,345.81,385.011,424.616,296.765,447.947z"/>
</svg>